<svg width="32" height="32" viewBox="0 0 32 32" fill="none" xmlns="http://www.w3.org/2000/svg">
<mask id="mask0_19027_6577" style="mask-type:alpha" maskUnits="userSpaceOnUse" x="4" y="4" width="24" height="24">
<rect x="4" y="4" width="24" height="24" fill="#D9D9D9"/>
</mask>
<g mask="url(#mask0_19027_6577)">
<path d="M15.9991 17.8645L9.46576 24.3892C9.22131 24.6333 8.9102 24.7554 8.53242 24.7554C8.15464 24.7554 7.84353 24.6333 7.59909 24.3892C7.35464 24.1451 7.23242 23.8344 7.23242 23.4571C7.23242 23.0798 7.35464 22.7691 7.59909 22.525L14.1324 16.0003L7.59909 9.47552C7.35464 9.23139 7.23242 8.92069 7.23242 8.54341C7.23242 8.16613 7.35464 7.85543 7.59909 7.6113C7.84353 7.36718 8.15464 7.24512 8.53242 7.24512C8.9102 7.24512 9.22131 7.36718 9.46576 7.6113L15.9991 14.136L22.5324 7.6113C22.7769 7.36718 23.088 7.24512 23.4658 7.24512C23.8435 7.24512 24.1546 7.36718 24.3991 7.6113C24.6435 7.85543 24.7658 8.16613 24.7658 8.54341C24.7658 8.92069 24.6435 9.23139 24.3991 9.47552L17.8658 16.0003L24.3991 22.525C24.6435 22.7691 24.7658 23.0798 24.7658 23.4571C24.7658 23.8344 24.6435 24.1451 24.3991 24.3892C24.1546 24.6333 23.8435 24.7554 23.4658 24.7554C23.088 24.7554 22.7769 24.6333 22.5324 24.3892L15.9991 17.8645Z" fill="white"/>
</g>
</svg>
