<svg width="33" height="32" viewBox="0 0 33 32" fill="none" xmlns="http://www.w3.org/2000/svg">
<mask id="mask0_39765_4572" style="mask-type:alpha" maskUnits="userSpaceOnUse" x="4" y="4" width="25" height="24">
<rect x="4.6543" y="4" width="24" height="24" fill="#D9D9D9"/>
</mask>
<g mask="url(#mask0_39765_4572)">
<path d="M16.6544 17.864L10.121 24.3887C9.87658 24.6329 9.56547 24.7549 9.1877 24.7549C8.80992 24.7549 8.49881 24.6329 8.25436 24.3887C8.00992 24.1446 7.8877 23.8339 7.8877 23.4566C7.8877 23.0793 8.00992 22.7686 8.25436 22.5245L14.7877 15.9998L8.25436 9.47503C8.00992 9.2309 7.8877 8.9202 7.8877 8.54292C7.8877 8.16564 8.00992 7.85494 8.25436 7.61081C8.49881 7.36669 8.80992 7.24463 9.1877 7.24463C9.56547 7.24463 9.87658 7.36669 10.121 7.61081L16.6544 14.1356L23.1877 7.61081C23.4321 7.36669 23.7433 7.24463 24.121 7.24463C24.4988 7.24463 24.8099 7.36669 25.0544 7.61081C25.2988 7.85494 25.421 8.16564 25.421 8.54292C25.421 8.9202 25.2988 9.2309 25.0544 9.47503L18.521 15.9998L25.0544 22.5245C25.2988 22.7686 25.421 23.0793 25.421 23.4566C25.421 23.8339 25.2988 24.1446 25.0544 24.3887C24.8099 24.6329 24.4988 24.7549 24.121 24.7549C23.7433 24.7549 23.4321 24.6329 23.1877 24.3887L16.6544 17.864Z" fill="#4589FF"/>
</g>
</svg>
