<svg width="25" height="24" viewBox="0 0 25 24" fill="none" xmlns="http://www.w3.org/2000/svg">
<mask id="mask0_38415_2874" style="mask-type:alpha" maskUnits="userSpaceOnUse" x="0" y="0" width="25" height="24">
<rect x="0.654297" width="24" height="24" fill="#D9D9D9"/>
</mask>
<g mask="url(#mask0_38415_2874)">
<path d="M10.204 15.15L18.679 6.675C18.879 6.475 19.1165 6.375 19.3915 6.375C19.6665 6.375 19.904 6.475 20.104 6.675C20.304 6.875 20.404 7.1125 20.404 7.3875C20.404 7.6625 20.304 7.9 20.104 8.1L10.904 17.3C10.704 17.5 10.4707 17.6 10.204 17.6C9.93735 17.6 9.70402 17.5 9.50402 17.3L5.20402 13C5.00402 12.8 4.90818 12.5625 4.91652 12.2875C4.92485 12.0125 5.02902 11.775 5.22902 11.575C5.42902 11.375 5.66652 11.275 5.94152 11.275C6.21652 11.275 6.45402 11.375 6.65402 11.575L10.204 15.15Z" fill="white"/>
</g>
</svg>
