<svg width="25" height="24" viewBox="0 0 25 24" fill="none" xmlns="http://www.w3.org/2000/svg">
<mask id="mask0_39765_4632" style="mask-type:alpha" maskUnits="userSpaceOnUse" x="0" y="0" width="25" height="24">
<rect x="0.654297" width="24" height="24" fill="#D9D9D9"/>
</mask>
<g mask="url(#mask0_39765_4632)">
<path d="M7.6543 21C7.1043 21 6.63346 20.8042 6.2418 20.4125C5.85013 20.0208 5.6543 19.55 5.6543 19V6C5.37096 6 5.13346 5.90417 4.9418 5.7125C4.75013 5.52083 4.6543 5.28333 4.6543 5C4.6543 4.71667 4.75013 4.47917 4.9418 4.2875C5.13346 4.09583 5.37096 4 5.6543 4H9.6543C9.6543 3.71667 9.75013 3.47917 9.9418 3.2875C10.1335 3.09583 10.371 3 10.6543 3H14.6543C14.9376 3 15.1751 3.09583 15.3668 3.2875C15.5585 3.47917 15.6543 3.71667 15.6543 4H19.6543C19.9376 4 20.1751 4.09583 20.3668 4.2875C20.5585 4.47917 20.6543 4.71667 20.6543 5C20.6543 5.28333 20.5585 5.52083 20.3668 5.7125C20.1751 5.90417 19.9376 6 19.6543 6V19C19.6543 19.55 19.4585 20.0208 19.0668 20.4125C18.6751 20.8042 18.2043 21 17.6543 21H7.6543ZM7.6543 6V19H17.6543V6H7.6543ZM9.6543 16C9.6543 16.2833 9.75013 16.5208 9.9418 16.7125C10.1335 16.9042 10.371 17 10.6543 17C10.9376 17 11.1751 16.9042 11.3668 16.7125C11.5585 16.5208 11.6543 16.2833 11.6543 16V9C11.6543 8.71667 11.5585 8.47917 11.3668 8.2875C11.1751 8.09583 10.9376 8 10.6543 8C10.371 8 10.1335 8.09583 9.9418 8.2875C9.75013 8.47917 9.6543 8.71667 9.6543 9V16ZM13.6543 16C13.6543 16.2833 13.7501 16.5208 13.9418 16.7125C14.1335 16.9042 14.371 17 14.6543 17C14.9376 17 15.1751 16.9042 15.3668 16.7125C15.5585 16.5208 15.6543 16.2833 15.6543 16V9C15.6543 8.71667 15.5585 8.47917 15.3668 8.2875C15.1751 8.09583 14.9376 8 14.6543 8C14.371 8 14.1335 8.09583 13.9418 8.2875C13.7501 8.47917 13.6543 8.71667 13.6543 9V16Z" fill="#4589FF"/>
</g>
</svg>
