<svg width="21" height="16" viewBox="0 0 21 16" fill="none" xmlns="http://www.w3.org/2000/svg">
<path d="M10.833 9.50614C10.5984 9.50654 10.3699 9.4317 10.181 9.29262L1.27792 2.72288C1.16208 2.63733 1.06424 2.52981 0.989988 2.40647C0.915732 2.28313 0.866516 2.14638 0.845148 2.00404C0.801994 1.71655 0.874893 1.42372 1.04781 1.18994C1.22073 0.956173 1.47949 0.800615 1.76719 0.757493C2.05488 0.71437 2.34794 0.787216 2.58188 0.960004L10.833 7.04248L19.0841 0.960004C19.2 0.874448 19.3315 0.812529 19.4713 0.777782C19.6111 0.743035 19.7564 0.736141 19.8988 0.757493C20.0413 0.778844 20.1781 0.828025 20.3016 0.902225C20.425 0.976425 20.5326 1.07419 20.6182 1.18994C20.7038 1.3057 20.7658 1.43717 20.8006 1.57685C20.8353 1.71653 20.8422 1.86169 20.8209 2.00404C20.7995 2.14638 20.7503 2.28313 20.676 2.40647C20.6018 2.52981 20.5039 2.63733 20.3881 2.72288L11.485 9.29262C11.2961 9.4317 11.0676 9.50654 10.833 9.50614Z" fill="white"/>
<path d="M10.833 15.2547C10.5984 15.2551 10.3699 15.1802 10.181 15.0412L1.27792 8.47142C1.04398 8.29863 0.888302 8.04005 0.845148 7.75257C0.801994 7.46509 0.874893 7.17225 1.04781 6.93848C1.22073 6.70471 1.47949 6.54915 1.76719 6.50603C2.05488 6.46291 2.34794 6.53575 2.58188 6.70854L10.833 12.791L19.0841 6.70854C19.3181 6.53575 19.6111 6.46291 19.8988 6.50603C20.1865 6.54915 20.4453 6.70471 20.6182 6.93848C20.7911 7.17225 20.864 7.46509 20.8209 7.75257C20.7777 8.04005 20.622 8.29863 20.3881 8.47142L11.485 15.0412C11.2961 15.1802 11.0676 15.2551 10.833 15.2547Z" fill="white"/>
</svg>
