<svg width="20" height="8" viewBox="0 0 20 8" fill="none" xmlns="http://www.w3.org/2000/svg">
<g clip-path="url(#clip0_371_3706)">
<path d="M18.9031 7.72528H1.09491C0.804266 7.72528 0.525522 7.60898 0.320002 7.40197C0.114483 7.19495 -0.000976562 6.91419 -0.000976562 6.62143C-0.000976562 6.32867 0.114483 6.0479 0.320002 5.84089C0.525522 5.63388 0.804266 5.51758 1.09491 5.51758H18.9031C19.1938 5.51758 19.4725 5.63388 19.678 5.84089C19.8836 6.0479 19.999 6.32867 19.999 6.62143C19.999 6.91419 19.8836 7.19495 19.678 7.40197C19.4725 7.60898 19.1938 7.72528 18.9031 7.72528Z" fill="#FFA800"/>
<path d="M18.9031 2.48211H1.09491C0.804266 2.48211 0.525522 2.36581 0.320002 2.1588C0.114483 1.95179 -0.000976562 1.67102 -0.000976562 1.37826C-0.000976562 1.0855 0.114483 0.804736 0.320002 0.597724C0.525522 0.390712 0.804266 0.274414 1.09491 0.274414L18.9031 0.274414C19.1938 0.274414 19.4725 0.390712 19.678 0.597724C19.8836 0.804736 19.999 1.0855 19.999 1.37826C19.999 1.67102 19.8836 1.95179 19.678 2.1588C19.4725 2.36581 19.1938 2.48211 18.9031 2.48211Z" fill="#FFA800"/>
</g>
<defs>
<clipPath id="clip0_371_3706">
<rect width="20" height="7.45098" fill="white" transform="translate(-0.000976562 0.274414)"/>
</clipPath>
</defs>
</svg>
