<svg width="21" height="16" viewBox="0 0 21 16" fill="none" xmlns="http://www.w3.org/2000/svg">
<path d="M19.5703 15.2547C19.3356 15.2551 19.1071 15.1803 18.9182 15.0412L10.6662 8.958L2.41411 15.0412C2.29826 15.1267 2.16667 15.1887 2.02687 15.2234C1.88707 15.2582 1.74179 15.2651 1.59932 15.2437C1.45685 15.2223 1.31999 15.1732 1.19654 15.099C1.0731 15.0247 0.965489 14.927 0.87986 14.8112C0.794231 14.6954 0.732259 14.5639 0.697483 14.4243C0.662706 14.2846 0.655806 14.1394 0.677176 13.997C0.720335 13.7095 0.876026 13.4509 1.11 13.2781L10.0141 6.70761C10.2028 6.56802 10.4314 6.49268 10.6662 6.49268C10.9009 6.49268 11.1295 6.56802 11.3182 6.70761L20.2223 13.2781C20.4082 13.415 20.5461 13.6071 20.6163 13.827C20.6864 14.0469 20.6853 14.2833 20.613 14.5025C20.5407 14.7216 20.4009 14.9124 20.2137 15.0475C20.0264 15.1826 19.8012 15.2551 19.5703 15.2547Z" fill="white"/>
<path d="M19.5703 9.50568C19.3357 9.50609 19.1071 9.43124 18.9182 9.29214L10.6662 3.20898L2.41411 9.29214C2.18014 9.46495 1.88705 9.5378 1.59933 9.49468C1.3116 9.45155 1.0528 9.29597 0.879865 9.06218C0.706929 8.82838 0.634022 8.53551 0.677181 8.24799C0.72034 7.96048 0.87603 7.70187 1.11 7.52906L10.0141 0.958588C10.2028 0.818997 10.4314 0.743652 10.6662 0.743652C10.9009 0.743652 11.1295 0.818997 11.3182 0.958588L20.2223 7.52906C20.4082 7.66598 20.5461 7.85809 20.6163 8.07797C20.6864 8.29785 20.6853 8.53426 20.613 8.75344C20.5407 8.97262 20.4009 9.16338 20.2137 9.29847C20.0264 9.43356 19.8012 9.50608 19.5703 9.50568Z" fill="white"/>
</svg>
