<svg width="25" height="24" viewBox="0 0 25 24" fill="none" xmlns="http://www.w3.org/2000/svg">
<path d="M21.5161 1H3.51611C2.41154 1 1.51611 1.89648 1.51611 3.00105C1.51611 3.02939 1.51611 3.04928 1.51611 3.05917V21.0592C1.51611 22.1311 2.38609 23 3.45798 23C3.48621 23 3.5061 23 3.51611 23H21.5161C21.5261 23 21.546 23 21.5742 23C22.6461 23 23.5161 22.1311 23.5161 21.0592V3.05915C23.5161 3.04925 23.5161 3.02937 23.5161 3.00104C23.5161 1.89648 22.6207 1 21.5161 1ZM14.5161 21.0592H3.51611V13.0591H14.5161V21.0592ZM14.5161 11.0591H3.51611V3.05917L14.5161 3.05915V11.0591ZM21.5161 21.0592H16.5161V3.05917H21.5161V21.0592Z" fill="#42526E"/>
</svg>
